test01.ufo
<glyph name="dolMK45" format="2">
  <advance width="666" height="666"/>
  <unicode hex="0007"/>
  <outline>
    <contour>
      <point x="119.469" y="28" type="qcurve"/>
      <point x="0" y="-80" type="line"/>
      <point x="0" y="81" type="line"/>
      <point x="0" y="140"/>
      <point x="60" y="140" type="qcurve"/>
      <point x="120" y="140"/>
      <point x="120" y="81" type="qcurve" smooth="yes"/>
      <point x="120" y="54"/>
    </contour>
    <component base="konCONS" xOffset="0.4688"/>
    <component base="konCONS" xOffset="0.46875" yOffset="20"/>
  </outline>
</glyph>
<glyph name="dolTW.alt" format="2">
  <advance width="523" height="523"/>
  <unicode hex="0007"/>
  <outline>
    <contour>
      <point x="-62" y="179" type="qcurve" smooth="yes"/>
      <point x="-5" y="178"/>
      <point x="0" y="122" type="qcurve" smooth="yes"/>
      <point x="1" y="110" type="line" smooth="yes"/>
      <point x="-8.49706" y="54.0059"/>
      <point x="0" y="71" type="qcurve" smooth="yes"/>
      <point x="1" y="73"/>
      <point x="6" y="89" type="qcurve" smooth="yes"/>
      <point x="14" y="113"/>
      <point x="40" y="118" type="qcurve" smooth="yes"/>
      <point x="68" y="124"/>
      <point x="88" y="116" type="qcurve" smooth="yes"/>
      <point x="121" y="102"/>
      <point x="121" y="61" type="qcurve" smooth="yes"/>
      <point x="120" y="-53"/>
      <point x="0" y="-52.8076" type="qcurve" smooth="yes"/>
      <point x="-119" y="-53"/>
      <point x="-119" y="118" type="qcurve" smooth="yes"/>
      <point x="-119" y="180"/>
    </contour>
    <component base="konCONS"/>
    <component base="konCONS" xOffset="-119" yOffset="60"/>
  </outline>
</glyph>
<glyph name="ij" format="2">
  <advance width="701" height="701"/>
  <unicode hex="0133"/>
  <outline>
    <contour>
      <point x="0" y="1209.89"/>
      <point x="19.1025" y="1190.41"/>
      <point x="32.7012" y="1190.13" type="qcurve" smooth="yes"/>
      <point x="48.8135" y="1189.84"/>
      <point x="102.326" y="1183.9"/>
      <point x="201.743" y="1167.95"/>
      <point x="307.375" y="1132.12"/>
      <point x="418.879" y="1080.96"/>
      <point x="523.186" y="994.795"/>
      <point x="559.091" y="941.09" type="qcurve" smooth="yes"/>
      <point x="633.847" y="829.272"/>
      <point x="634.578" y="673.871" type="qcurve" smooth="yes"/>
      <point x="634.923" y="37.6055" type="line" smooth="yes"/>
      <point x="634.931" y="23.7832"/>
      <point x="654.507" y="4.2168"/>
      <point x="682.158" y="4.2168"/>
      <point x="701.737" y="23.7959"/>
      <point x="701.737" y="37.624" type="qcurve" smooth="yes"/>
      <point x="701.392" y="673.907" type="line" smooth="yes"/>
      <point x="700.197" y="927.651"/>
      <point x="524.196" y="1080.09" type="qcurve" smooth="yes"/>
      <point x="469.12" y="1127.8"/>
      <point x="326.293" y="1199.25"/>
      <point x="210.686" y="1233.21"/>
      <point x="91.9961" y="1253.54"/>
      <point x="44.0986" y="1256.9"/>
      <point x="33.4062" y="1256.93" type="qcurve" smooth="yes"/>
      <point x="19.5781" y="1256.93"/>
      <point x="0" y="1237.35"/>
    </contour>
  </outline>
</glyph>
<glyph name="circumflex" format="2">
  <advance width="639" height="639"/>
  <unicode hex="02C6"/>
  <outline>
    <contour>
      <point x="246" y="2428" type="line"/>
      <point x="393" y="2428" type="line"/>
      <point x="639" y="2052" type="line"/>
      <point x="500" y="2052" type="line"/>
      <point x="319" y="2297" type="line"/>
      <point x="139" y="2052" type="line"/>
      <point x="0" y="2052" type="line"/>
    </contour>
  </outline>
</glyph>
<glyph name="quoteright" format="2">
  <advance width="773" height="773"/>
  <unicode hex="2019"/>
  <outline>
    <contour>
      <point x="309" y="2756" type="line"/>
      <point x="561" y="2756" type="line"/>
      <point x="561" y="2550" type="line"/>
      <point x="365" y="2167" type="line"/>
      <point x="211" y="2167" type="line"/>
      <point x="309" y="2550" type="line"/>
    </contour>
  </outline>
</glyph>
<glyph name="quotesinglbase" format="2">
  <advance width="773" height="773"/>
  <unicode hex="201A"/>
  <outline>
    <contour>
      <point x="309" y="-254" type="line"/>
      <point x="561" y="-254" type="line"/>
      <point x="561" y="-460" type="line"/>
      <point x="365" y="-843" type="line"/>
      <point x="211" y="-843" type="line"/>
      <point x="309" y="-460" type="line"/>
    </contour>
  </outline>
</glyph>
<glyph name="quotedblbase" format="2">
  <advance width="1233" height="1233"/>
  <unicode hex="201E"/>
  <outline>
    <contour>
      <point x="768" y="-244" type="line"/>
      <point x="1020" y="-244" type="line"/>
      <point x="1020" y="-450" type="line"/>
      <point x="823" y="-833" type="line"/>
      <point x="670" y="-833" type="line"/>
      <point x="768" y="-450" type="line"/>
    </contour>
    <contour>
      <point x="309" y="-244" type="line"/>
      <point x="561" y="-244" type="line"/>
      <point x="561" y="-450" type="line"/>
      <point x="365" y="-833" type="line"/>
      <point x="211" y="-833" type="line"/>
      <point x="309" y="-450" type="line"/>
    </contour>
  </outline>
</glyph>
<glyph name="ellipsis" format="2">
  <advance width="3000" height="3000"/>
  <unicode hex="2026"/>
  <outline>
    <contour>
      <point x="768" y="251" type="line"/>
      <point x="950" y="252" type="line"/>
      <point x="782" y="61" type="line"/>
      <point x="940" y="-131" type="line"/>
      <point x="758" y="-133" type="line"/>
      <point x="708" y="-23" type="line"/>
      <point x="637" y="-137" type="line"/>
      <point x="476" y="-133" type="line"/>
      <point x="637" y="54" type="line"/>
      <point x="477" y="252" type="line"/>
      <point x="654" y="252" type="line"/>
      <point x="714" y="148" type="line"/>
    </contour>
    <contour>
      <point x="1466" y="256" type="line"/>
      <point x="1648" y="257" type="line"/>
      <point x="1480" y="66" type="line"/>
      <point x="1638" y="-126" type="line"/>
      <point x="1456" y="-128" type="line"/>
      <point x="1406" y="-18" type="line"/>
      <point x="1335" y="-132" type="line"/>
      <point x="1174" y="-128" type="line"/>
      <point x="1335" y="59" type="line"/>
      <point x="1175" y="257" type="line"/>
      <point x="1352" y="257" type="line"/>
      <point x="1412" y="153" type="line"/>
    </contour>
    <contour>
      <point x="2112" y="246" type="line"/>
      <point x="2294" y="247" type="line"/>
      <point x="2126" y="56" type="line"/>
      <point x="2284" y="-136" type="line"/>
      <point x="2102" y="-138" type="line"/>
      <point x="2052" y="-28" type="line"/>
      <point x="1981" y="-142" type="line"/>
      <point x="1820" y="-138" type="line"/>
      <point x="1981" y="49" type="line"/>
      <point x="1821" y="247" type="line"/>
      <point x="1998" y="247" type="line"/>
      <point x="2058" y="143" type="line"/>
    </contour>
  </outline>
</glyph>
<glyph name="konCONS" format="2">
  <advance width="174" height="174"/>
  <unicode hex="E002"/>
  <outline>
    <contour>
      <point x="80" y="60" type="move"/>
      <point x="69" y="71" type="line"/>
      <point x="60" y="80" type="line"/>
      <point x="60" y="40" type="line"/>
      <point x="40" y="60" type="line"/>
      <point x="80" y="60" type="line"/>
    </contour>
    <contour>
      <point x="88" y="120"/>
      <point x="120" y="88"/>
      <point x="120" y="60" type="qcurve" smooth="yes"/>
      <point x="120" y="30"/>
      <point x="102.966" y="14" type="qcurve" smooth="yes"/>
      <point x="88" y="0"/>
      <point x="32" y="0"/>
      <point x="17.0342" y="14" type="qcurve" smooth="yes"/>
      <point x="0" y="30"/>
      <point x="0" y="60" type="qcurve" smooth="yes"/>
      <point x="0" y="88"/>
      <point x="32" y="120"/>
    </contour>
  </outline>
</glyph>
<glyph name="prostaCONS" format="2">
  <advance width="125" height="125"/>
  <unicode hex="E003"/>
  <outline>
    <contour>
      <point x="0.110352" y="900" type="line"/>
      <point x="120.11" y="900" type="line"/>
      <point x="119.685" y="0.331055" type="line"/>
      <point x="0" y="-0.0341797" type="line"/>
    </contour>
  </outline>
</glyph>
<glyph name="stemG.krt" format="2">
  <advance width="120" height="120"/>
  <unicode hex="E00B"/>
  <outline>
    <contour>
      <point x="120" y="639" type="qcurve"/>
      <point x="120" y="60" type="line"/>
      <point x="120" y="0"/>
      <point x="60" y="0" type="qcurve"/>
      <point x="0" y="0"/>
      <point x="0" y="60" type="qcurve"/>
      <point x="0" y="639" type="line"/>
      <point x="0" y="700"/>
      <point x="60" y="700" type="qcurve" smooth="yes"/>
      <point x="120" y="700"/>
    </contour>
    <contour>
      <point x="0" y="60" type="move"/>
    </contour>
    <component base="konCONS"/>
    <component base="konCONS" xOffset="-1" yOffset="580"/>
  </outline>
</glyph>
<glyph name="stemI" format="2">
  <advance width="120" height="120"/>
  <unicode hex="E00C"/>
  <outline>
    <contour>
      <point x="120" y="439" type="qcurve"/>
      <point x="120" y="60" type="line"/>
      <point x="120" y="0"/>
      <point x="60" y="0" type="qcurve"/>
      <point x="0" y="0"/>
      <point x="0" y="60" type="qcurve"/>
      <point x="0" y="439" type="line"/>
      <point x="0" y="500"/>
      <point x="60" y="500" type="qcurve" smooth="yes"/>
      <point x="120" y="500"/>
    </contour>
    <contour>
      <point x="0" y="60" type="move"/>
    </contour>
    <component base="konCONS"/>
    <component base="konCONS" xOffset="-1" yOffset="380"/>
  </outline>
</glyph>
<glyph name="stemKRT" format="2">
  <advance width="120" height="120"/>
  <unicode hex="E00E"/>
  <outline>
    <contour>
      <point x="59" y="80" type="move"/>
      <point x="59" y="40" type="line"/>
      <point x="39" y="60" type="line"/>
      <point x="79" y="60" type="line"/>
    </contour>
    <contour>
      <point x="87" y="120"/>
      <point x="119" y="88"/>
      <point x="119" y="60" type="qcurve" smooth="yes"/>
      <point x="119" y="30"/>
      <point x="101.966" y="14" type="qcurve" smooth="yes"/>
      <point x="87" y="0"/>
      <point x="31" y="0"/>
      <point x="16.0342" y="14" type="qcurve" smooth="yes"/>
      <point x="-1" y="30"/>
      <point x="-1" y="60" type="qcurve" smooth="yes"/>
      <point x="-1" y="88"/>
      <point x="31" y="120"/>
    </contour>
    <contour>
      <point x="59" y="200" type="move"/>
      <point x="59" y="160" type="line"/>
      <point x="39" y="180" type="line"/>
      <point x="79" y="180" type="line"/>
    </contour>
    <contour>
      <point x="87" y="240"/>
      <point x="119" y="208"/>
      <point x="119" y="180" type="qcurve" smooth="yes"/>
      <point x="119" y="150"/>
      <point x="101.966" y="134" type="qcurve" smooth="yes"/>
      <point x="87" y="120"/>
      <point x="31" y="120"/>
      <point x="16.0342" y="134" type="qcurve" smooth="yes"/>
      <point x="-1" y="150"/>
      <point x="-1" y="180" type="qcurve" smooth="yes"/>
      <point x="-1" y="208"/>
      <point x="31" y="240"/>
    </contour>
    <contour>
      <point x="120" y="179" type="qcurve"/>
      <point x="120" y="60" type="line"/>
      <point x="120" y="0"/>
      <point x="60" y="0" type="qcurve"/>
      <point x="0" y="0"/>
      <point x="0" y="60" type="qcurve"/>
      <point x="0" y="179" type="line"/>
      <point x="0" y="240"/>
      <point x="120" y="240"/>
    </contour>
    <contour>
      <point x="0" y="60" type="move"/>
    </contour>
  </outline>
</glyph>
<glyph name="gorPS.brzh" format="2">
  <advance width="600" height="600"/>
  <unicode hex="E01F"/>
  <outline>
    <contour>
      <point x="120" y="55" type="line"/>
      <point x="120" y="0"/>
      <point x="60" y="0" type="qcurve"/>
      <point x="0" y="0"/>
      <point x="0" y="55" type="qcurve"/>
      <point x="0" y="524"/>
      <point x="0" y="806" type="qcurve"/>
      <point x="0" y="1121"/>
      <point x="291.5" y="1121" type="qcurve" smooth="yes"/>
      <point x="583" y="1121"/>
      <point x="584" y="807" type="qcurve" smooth="yes"/>
      <point x="585" y="315"/>
      <point x="120" y="82" type="qcurve"/>
    </contour>
    <contour>
      <point x="120" y="225" type="qcurve"/>
      <point x="454" y="407"/>
      <point x="456" y="806" type="qcurve" smooth="yes"/>
      <point x="457" y="988"/>
      <point x="290" y="988" type="qcurve" smooth="yes"/>
      <point x="123" y="988"/>
      <point x="123" y="806" type="qcurve" smooth="yes"/>
      <point x="122" y="484"/>
    </contour>
    <component base="konCONS" yOffset="80"/>
    <component base="konCONS"/>
  </outline>
</glyph>
<glyph name="dolDv.brzhd" format="2">
  <advance width="394" height="394"/>
  <unicode hex="E022"/>
  <outline>
    <contour>
      <point x="118.5" y="386" type="qcurve"/>
      <point x="118" y="324" type="line"/>
      <point x="118.5" y="442"/>
      <point x="197.5" y="442" type="qcurve" smooth="yes"/>
      <point x="392.5" y="442"/>
      <point x="392" y="64" type="qcurve" smooth="yes"/>
      <point x="391.5" y="-339"/>
      <point x="197.5" y="-339" type="qcurve" smooth="yes"/>
      <point x="-1.5" y="-339"/>
      <point x="-2" y="-18" type="qcurve"/>
      <point x="-1.5" y="236"/>
      <point x="-1.5" y="351" type="qcurve"/>
      <point x="-1.5" y="442"/>
      <point x="58.5" y="442" type="qcurve"/>
      <point x="118.5" y="442"/>
    </contour>
    <contour>
      <point x="118.5" y="-17" type="qcurve" smooth="yes"/>
      <point x="118.5" y="-219"/>
      <point x="197" y="-219" type="qcurve" smooth="yes"/>
      <point x="265.5" y="-219"/>
      <point x="265.5" y="65" type="qcurve" smooth="yes"/>
      <point x="265.5" y="310"/>
      <point x="197.5" y="310" type="qcurve" smooth="yes"/>
      <point x="118.5" y="310"/>
    </contour>
    <component base="konCONS" yOffset="323"/>
    <component base="konCONS"/>
  </outline>
</glyph>
<glyph name="dolMv.brzhd" format="2">
  <advance width="359" height="359"/>
  <unicode hex="E023"/>
  <outline>
    <contour>
      <point x="240" y="19" type="qcurve" smooth="yes"/>
      <point x="240" y="141.225"/>
      <point x="178" y="141.615" type="qcurve" smooth="yes"/>
      <point x="117" y="142"/>
      <point x="116" y="-35" type="qcurve"/>
      <point x="116" y="-107"/>
      <point x="178.469" y="-106.984" type="qcurve" smooth="yes"/>
      <point x="240" y="-107"/>
    </contour>
    <contour>
      <point x="116" y="201" type="line"/>
      <point x="116" y="251"/>
      <point x="178" y="250.759" type="qcurve" smooth="yes"/>
      <point x="355" y="251"/>
      <point x="355" y="12" type="qcurve" smooth="yes"/>
      <point x="355" y="-227"/>
      <point x="178" y="-227" type="qcurve" smooth="yes"/>
      <point x="-4" y="-227"/>
      <point x="-4" y="138" type="qcurve" smooth="yes"/>
      <point x="-4" y="327" type="line"/>
      <point x="116" y="327" type="line"/>
    </contour>
    <component base="konCONS" yOffset="-4.54747e-13"/>
    <component base="konCONS" xOffset="-4.53125" yOffset="267.02"/>
  </outline>
</glyph>
<glyph name="koloS" format="2">
  <advance width="583" height="583"/>
  <unicode hex="E060"/>
  <outline>
    <contour>
      <point x="289.634" y="674.554" type="qcurve" smooth="yes"/>
      <point x="388" y="675"/>
      <point x="479.721" y="588.369" type="qcurve" smooth="yes"/>
      <point x="582" y="492"/>
      <point x="582.461" y="334" type="qcurve" smooth="yes"/>
      <point x="583" y="178"/>
      <point x="479.721" y="85.6299" type="qcurve" smooth="yes"/>
      <point x="385" y="-0"/>
      <point x="290.634" y="-0.553711" type="qcurve" smooth="yes"/>
      <point x="199" y="-1"/>
      <point x="100.347" y="85.6299" type="qcurve" smooth="yes"/>
      <point x="0" y="174"/>
      <point x="0" y="332" type="qcurve" smooth="yes"/>
      <point x="0" y="498"/>
      <point x="100.347" y="588.369" type="qcurve" smooth="yes"/>
      <point x="196" y="674"/>
    </contour>
    <contour>
      <point x="291.624" y="125.5" type="qcurve" smooth="yes"/>
      <point x="367" y="126"/>
      <point x="415.649" y="200.789" type="qcurve" smooth="yes"/>
      <point x="460" y="269"/>
      <point x="458.425" y="334.332" type="qcurve" smooth="yes"/>
      <point x="456" y="421"/>
      <point x="423" y="473" type="qcurve" smooth="yes"/>
      <point x="376" y="549"/>
      <point x="290.624" y="549.287" type="qcurve" smooth="yes"/>
      <point x="209" y="549"/>
      <point x="165" y="473" type="qcurve" smooth="yes"/>
      <point x="121" y="396"/>
      <point x="121.824" y="331.788" type="qcurve" smooth="yes"/>
      <point x="122" y="263"/>
      <point x="164.149" y="199.789" type="qcurve" smooth="yes"/>
      <point x="214" y="125"/>
    </contour>
    <component base="konCONS" xOffset="215" yOffset="552"/>
    <component base="konCONS" xOffset="250" yOffset="552"/>
    <component base="konCONS" xOffset="65" yOffset="467"/>
    <component base="konCONS" xOffset="430" yOffset="140"/>
    <component base="konCONS" xOffset="27" yOffset="403"/>
    <component base="konCONS" xOffset="462" yOffset="271"/>
    <component base="konCONS" xOffset="210.634" yOffset="1.44629"/>
    <component base="konCONS" xOffset="251" yOffset="2"/>
    <component base="konCONS" yOffset="271"/>
    <component base="konCONS" xOffset="394" yOffset="87"/>
  </outline>
</glyph>
<glyph name="luD1" format="2">
  <advance width="360" height="360"/>
  <unicode hex="E065"/>
  <outline>
    <contour>
      <point x="28" y="472" type="qcurve"/>
      <point x="91" y="581" type="line"/>
      <point x="360" y="403"/>
      <point x="360" y="60" type="qcurve"/>
      <point x="240" y="60" type="line"/>
      <point x="240" y="335"/>
    </contour>
    <component base="konCONS" yOffset="466"/>
    <component base="konCONS" xOffset="240"/>
  </outline>
</glyph>
<glyph name="luT3" format="2">
  <advance width="425" height="425"/>
  <unicode hex="E06C"/>
  <outline>
    <contour>
      <point x="396.029" y="783.038" type="qcurve"/>
      <point x="389.971" y="780"/>
      <point x="383.904" y="776.038" type="qcurve" smooth="yes"/>
      <point x="121.971" y="606"/>
      <point x="120.029" y="80" type="qcurve" smooth="yes"/>
      <point x="119.971" y="63"/>
      <point x="120.029" y="60" type="qcurve"/>
      <point x="120.029" y="60"/>
      <point x="0.0292969" y="60" type="qcurve"/>
      <point x="-0.0292969" y="70"/>
      <point x="0.0292969" y="80" type="qcurve" smooth="yes"/>
      <point x="-0.0292969" y="692"/>
      <point x="321.77" y="884.462" type="qcurve" smooth="yes"/>
      <point x="321.77" y="884.462"/>
      <point x="333.029" y="890.962" type="qcurve"/>
      <point x="393.971" y="912"/>
      <point x="418.99" y="870.732" type="qcurve"/>
      <point x="437.971" y="801"/>
    </contour>
    <component base="konCONS" xOffset="304.971" yOffset="777"/>
    <component base="konCONS" xOffset="-0.0288086"/>
  </outline>
</glyph>
<glyph name="luKLY" format="2">
  <advance width="333" height="333"/>
  <unicode hex="E06E"/>
  <outline>
    <contour>
      <point x="213.627" y="174" type="line"/>
      <point x="333.627" y="174" type="line"/>
      <point x="333.502" y="171"/>
      <point x="333.252" y="139.625" type="qcurve" smooth="yes"/>
      <point x="333.505" y="-63"/>
      <point x="140.502" y="-63" type="qcurve" smooth="yes"/>
      <point x="16.502" y="-63"/>
      <point x="16.002" y="78.875" type="qcurve" smooth="yes"/>
      <point x="15.502" y="221"/>
      <point x="140.502" y="221" type="qcurve" smooth="yes"/>
      <point x="213.502" y="221"/>
      <point x="213.627" y="139" type="qcurve"/>
    </contour>
    <component base="koloL" yOffset="-67"/>
    <component base="konCONS" xOffset="197.502"/>
    <component base="konCONS" xOffset="213.502" yOffset="114"/>
  </outline>
</glyph>
<glyph name="okroci" format="2">
  <advance width="550" height="550"/>
  <unicode hex="E098"/>
  <outline>
    <contour>
      <point x="190.133" y="0" type="qcurve"/>
      <point x="190" y="120" type="line"/>
      <point x="248" y="123"/>
      <point x="292" y="150.212" type="qcurve" smooth="yes"/>
      <point x="329" y="174"/>
      <point x="352" y="197" type="qcurve" smooth="yes"/>
      <point x="392" y="237"/>
      <point x="418" y="328" type="qcurve" smooth="yes"/>
      <point x="438" y="401"/>
      <point x="418" y="476.5" type="qcurve" smooth="yes"/>
      <point x="394" y="565"/>
      <point x="353.5" y="595.5" type="qcurve" smooth="yes"/>
      <point x="279" y="653"/>
      <point x="224" y="656" type="qcurve" smooth="yes"/>
      <point x="162" y="659"/>
      <point x="101" y="590" type="qcurve"/>
      <point x="20" y="685" type="line"/>
      <point x="93" y="779"/>
      <point x="199.481" y="779.281" type="qcurve" smooth="yes"/>
      <point x="346" y="780"/>
      <point x="453.5" y="658" type="qcurve" smooth="yes"/>
      <point x="550" y="548"/>
      <point x="550" y="403" type="qcurve" smooth="yes"/>
      <point x="550" y="310.983"/>
      <point x="514" y="228" type="qcurve" smooth="yes"/>
      <point x="455" y="92"/>
      <point x="346" y="39.8164" type="qcurve" smooth="yes"/>
      <point x="257" y="-2"/>
    </contour>
    <component base="konCONS" xOffset="130"/>
    <component base="konCONS" xOffset="429" yOffset="343"/>
    <component base="konCONS" xOffset="330" yOffset="93"/>
    <component base="konCONS" yOffset="578"/>
  </outline>
</glyph>
<glyph name="okrodzi" format="2">
  <advance width="400" height="400"/>
  <unicode hex="E0A1"/>
  <outline>
    <contour>
      <point x="136.469" y="-0.0546875" type="qcurve"/>
      <point x="136.903" y="120.352" type="line"/>
      <point x="196" y="120"/>
      <point x="233.042" y="156" type="qcurve" smooth="yes"/>
      <point x="278" y="199"/>
      <point x="277" y="296" type="qcurve" smooth="yes"/>
      <point x="276" y="357"/>
      <point x="231" y="394" type="qcurve" smooth="yes"/>
      <point x="169" y="447"/>
      <point x="93.0801" y="393.575" type="qcurve"/>
      <point x="28" y="500.696" type="line"/>
      <point x="111" y="564"/>
      <point x="209" y="541" type="qcurve" smooth="yes"/>
      <point x="399" y="495"/>
      <point x="399.495" y="277" type="qcurve" smooth="yes"/>
      <point x="400" y="150"/>
      <point x="340" y="91" type="qcurve" smooth="yes"/>
      <point x="259" y="10"/>
    </contour>
    <component base="konCONS" xOffset="77"/>
    <component base="konCONS" xOffset="256" yOffset="105"/>
    <component base="konCONS" yOffset="388"/>
  </outline>
</glyph>
<glyph name="luU0" format="2">
  <advance width="455" height="455"/>
  <unicode hex="E0AD"/>
  <outline>
    <contour>
      <point x="168" y="-44" type="qcurve" smooth="yes"/>
      <point x="333" y="-44"/>
      <point x="333" y="780" type="qcurve"/>
      <point x="454" y="780" type="line"/>
      <point x="453" y="-169"/>
      <point x="165" y="-164" type="qcurve" smooth="yes"/>
      <point x="0" y="-161"/>
      <point x="0" y="60" type="qcurve"/>
      <point x="120" y="60" type="line"/>
      <point x="120" y="-44"/>
    </contour>
    <component base="konCONS"/>
    <component base="konCONS" xOffset="334" yOffset="720"/>
  </outline>
</glyph>
<glyph name="luU3" format="2">
  <advance width="882" height="882"/>
  <unicode hex="E0B0"/>
  <outline>
    <contour>
      <point x="244" y="-44" type="qcurve" smooth="yes"/>
      <point x="423" y="-45"/>
      <point x="765.505" y="548.729" type="qcurve"/>
      <point x="870.294" y="488.229" type="line"/>
      <point x="492" y="-165"/>
      <point x="241" y="-164" type="qcurve" smooth="yes"/>
      <point x="0" y="-164"/>
      <point x="-1" y="60" type="qcurve"/>
      <point x="119.001" y="60" type="line"/>
      <point x="120" y="-44"/>
    </contour>
    <component base="konCONS" xyScale="-2.01892e-07" yxScale="2.01892e-07" xOffset="-0.99971" yOffset="0.00045"/>
    <component base="konCONS" xScale="0.866025" yScale="0.866025" xyScale="-0.5" yxScale="0.5" xOffset="736.372" yOffset="496.268"/>
  </outline>
</glyph>
<glyph name="luU4" format="2">
  <advance width="452" height="452"/>
  <unicode hex="E0B1"/>
  <outline>
    <contour>
      <point x="225" y="-44" type="qcurve" smooth="yes"/>
      <point x="331" y="-44"/>
      <point x="331" y="80" type="qcurve"/>
      <point x="451" y="80" type="line"/>
      <point x="451" y="-164"/>
      <point x="222" y="-164" type="qcurve" smooth="yes"/>
      <point x="0" y="-163.028"/>
      <point x="0" y="60" type="qcurve"/>
      <point x="120" y="60" type="line"/>
      <point x="120" y="-44"/>
    </contour>
    <component base="konCONS" xOffset="331" yOffset="20"/>
    <component base="konCONS"/>
  </outline>
</glyph>
<glyph name="luNOdol" format="2">
  <advance width="776" height="776"/>
  <unicode hex="E0BA"/>
  <outline>
    <contour>
      <point x="375" y="-1" type="qcurve" smooth="yes"/>
      <point x="572" y="10"/>
      <point x="659" y="129" type="qcurve"/>
      <point x="773" y="81" type="line"/>
      <point x="768" y="69"/>
      <point x="743" y="34.1309" type="qcurve" smooth="yes"/>
      <point x="631.082" y="-122.688"/>
      <point x="375" y="-128" type="qcurve" smooth="yes"/>
      <point x="134" y="-133"/>
      <point x="18" y="8.13672" type="qcurve" smooth="yes"/>
      <point x="12.9756" y="15.3887"/>
      <point x="9" y="24" type="qcurve"/>
      <point x="111" y="96" type="line"/>
      <point x="213" y="-11"/>
    </contour>
    <component base="konCONS"/>
    <component base="konCONS" xOffset="656" yOffset="45"/>
  </outline>
</glyph>
<glyph name="dolMK30" format="2">
  <advance width="434" height="434"/>
  <unicode hex="E0C3"/>
  <outline>
    <contour>
      <point x="119.469" y="36" type="line"/>
      <point x="0" y="-166" type="line"/>
      <point x="0" y="77" type="line"/>
      <point x="0" y="138"/>
      <point x="60" y="138.5" type="qcurve"/>
      <point x="120" y="139"/>
      <point x="120" y="80" type="qcurve"/>
    </contour>
    <component base="konCONS" xOffset="0.46875" yOffset="18"/>
    <component base="konCONS" xOffset="0.4688" yOffset="-1"/>
  </outline>
</glyph>
<glyph name="dolTWe" format="2">
  <advance width="335" height="335"/>
  <unicode hex="E0C4"/>
  <outline>
    <contour>
      <point x="0" y="180" type="line"/>
      <point x="120" y="180" type="line"/>
      <point x="120" y="179" type="line" smooth="yes"/>
      <point x="129" y="151"/>
      <point x="144" y="144" type="qcurve" smooth="yes"/>
      <point x="152" y="140"/>
      <point x="176" y="140" type="qcurve" smooth="yes"/>
      <point x="182" y="140" type="line"/>
      <point x="181.695" y="20.084" type="line"/>
      <point x="175.623" y="20.084" type="line" smooth="yes"/>
      <point x="117" y="23"/>
      <point x="78" y="48" type="qcurve" smooth="yes"/>
      <point x="6.59439" y="91.2085"/>
      <point x="0" y="177.65" type="qcurve" smooth="yes"/>
    </contour>
    <component base="konCONS" yOffset="120"/>
    <component base="konCONS" xOffset="122" yOffset="20"/>
  </outline>
</glyph>
<glyph name="dolLUK" format="2">
  <advance width="517" height="517"/>
  <unicode hex="E0C9"/>
  <outline>
    <contour>
      <point x="0" y="61" type="line"/>
      <point x="120" y="60" type="line"/>
      <point x="120" y="24" type="line" smooth="yes"/>
      <point x="120" y="-20"/>
      <point x="236" y="-20" type="qcurve" smooth="yes"/>
      <point x="298" y="-20"/>
      <point x="334" y="52" type="qcurve"/>
      <point x="445" y="-6" type="line"/>
      <point x="368" y="-140"/>
      <point x="235" y="-140" type="qcurve" smooth="yes"/>
      <point x="0" y="-141"/>
      <point x="0" y="24" type="qcurve" smooth="yes"/>
    </contour>
    <component base="konCONS"/>
    <component base="konCONS" xOffset="330" yOffset="-36"/>
  </outline>
</glyph>
<glyph name="OstrI" format="2">
  <advance width="120" height="120"/>
  <unicode hex="E0D1"/>
  <outline>
    <contour>
      <point x="120" y="140" type="line"/>
      <point x="120" y="120" type="line"/>
      <point x="120" y="-85" type="line"/>
      <point x="0" y="30" type="line"/>
      <point x="0" y="38" type="line"/>
      <point x="0" y="140" type="line"/>
    </contour>
    <component base="konCONS" yOffset="80"/>
    <component base="konCONS" yOffset="-1"/>
  </outline>
</glyph>
